# xmcd
#
# Track frame offsets: 
#        150
#        12742
#        27762
#        40612
#        50590
#        61470
#        74375
#        87227
#        99362
#        109125
#        121715
#        131542
#        142857
#        153375
#        164325
#        178842
#
# Disc length: 2486 seconds
#
# Revision: 1
# Processed by: cddbd v1.5.2PL0 Copyright (c) Steve Scherf et al.
# Submitted via: ExactAudioCopyFreeDBPlugin 1.0
#
DISCID=d209b410
DTITLE=Various Artist - Country and Western [CD1)
DYEAR=1995
DGENRE=Country
TTITLE0=Johnny Cash - Folsom Prison Blues
TTITLE1=Kenny Rogers - For The Good Times
TTITLE2=Oak Ridge Boys - The Old Country Church
TTITLE3=Dolly Parton - Release Me
TTITLE4=Johnny Cash - I Love You Because
TTITLE5=Oak Ridge Boys - Dear Jesus Abide With Me
TTITLE6=Kenny Rogers - Ruby, Dont Take Your Love To Town
TTITLE7=Dolly Parton - Two Little Orphans
TTITLE8=Johnny Cash - Ballad Of A Teenage Queen
TTITLE9=Oak Ridge Boys - Thank God I'm Reborn
TTITLE10=Johnny Cash - Rock Island Line
TTITLE11=Dolly Parton - Makin' Believe
TTITLE12=Kenny Rogers - She Even Woke Me Up To Say Goodbye
TTITLE13=Oak Ridge Boys - I'll Wake Up To The Other Side
TTITLE14=Kenny Rogers - Hear The Call
TTITLE15=Johnny Cash - Hey Good Lookin'
EXTD=ZYX Music - ZYX 11005-2 YEAR: 1995\n
EXTT0=
EXTT1=
EXTT2=
EXTT3=
EXTT4=
EXTT5=
EXTT6=
EXTT7=
EXTT8=
EXTT9=
EXTT10=
EXTT11=
EXTT12=
EXTT13=
EXTT14=
EXTT15=
PLAYORDER=
